<svg xmlns="http://www.w3.org/2000/svg" width="218" height="201" viewBox="0 0 218 201" fill="none">
<path d="M108.914 201C169.065 201 217.828 196.814 217.828 191.651C217.828 186.488 169.065 182.302 108.914 182.302C48.7624 182.302 0 186.488 0 191.651C0 196.814 48.7624 201 108.914 201Z" fill="url(#paint0_linear_6324_58252)"/>
<g clip-path="url(#clip0_6324_58252)">
<path d="M35.7893 144.179L28.6502 151.244L16.1851 138.893L21.668 137.597L23.3155 131.819L35.7893 144.179Z" fill="url(#paint1_linear_6324_58252)"/>
<path d="M27.4297 144.179L34.5601 151.244L47.0339 138.893L41.5423 137.597L39.9035 131.819L27.4297 144.179Z" fill="url(#paint2_linear_6324_58252)"/>
<path fill-rule="evenodd" clip-rule="evenodd" d="M9.03662 148.204H54.1813V148.204L54.1819 148.204V190.648H54.1813H43.4427H9.03662V148.204Z" fill="url(#paint3_linear_6324_58252)"/>
<path fill-rule="evenodd" clip-rule="evenodd" d="M49.065 145.604H58.7756V157.895H49.065H4.44336V145.604H49.065Z" fill="url(#paint4_linear_6324_58252)"/>
<path d="M37.2878 166.049C37.2878 167.915 35.7623 169.426 33.8795 169.426C31.9966 169.426 30.4712 167.915 30.4712 166.049C30.4712 164.183 31.9966 162.672 33.8795 162.672C35.7623 162.672 37.2878 164.183 37.2878 166.049Z" fill="#FBF4E2"/>
<path d="M37.2878 181.423C37.2878 183.289 35.7623 184.801 33.8795 184.801C31.9966 184.801 30.4712 183.289 30.4712 181.423C30.4712 179.558 31.9966 178.046 33.8795 178.046C35.7623 178.046 37.2878 179.558 37.2878 181.423Z" fill="#FBF4E2"/>
<path d="M37.28 145.604H25.9307V190.649H37.28V145.604Z" fill="url(#paint5_linear_6324_58252)"/>
</g>
<g clip-path="url(#clip1_6324_58252)">
<path d="M134.623 18.6978H132.753V29.9164H134.623V18.6978Z" fill="#9B6161"/>
<path d="M133.688 3.7395L139.344 13.5453C141.867 17.901 138.713 23.3721 133.688 23.3721C128.663 23.3721 125.509 17.9221 128.032 13.5453L133.688 3.7395Z" fill="url(#paint6_linear_6324_58252)"/>
<path d="M133.688 10.2837L136.919 15.4256C138.364 17.713 136.558 20.5674 133.688 20.5674C130.819 20.5674 129.012 17.713 130.458 15.4256L133.688 10.2837Z" fill="url(#paint7_linear_6324_58252)"/>
<path d="M147.838 29.0999V37.0109H130.875V45.4051C132.995 43.1506 135.718 42.0233 139.066 42.0233C142.838 42.0233 145.695 42.9694 147.615 44.8818C149.557 46.7941 150.516 50.4376 150.516 55.8526V62.8981C150.516 66.4007 150.338 68.9773 149.958 70.6079C149.579 72.2384 148.798 73.7683 147.57 75.1573C146.343 76.5462 144.646 77.6131 142.481 78.3579C140.316 79.1027 137.638 79.4651 134.513 79.4651C130.986 79.4651 127.884 78.9014 125.206 77.7943C122.527 76.6871 120.608 75.0365 119.492 72.8222C118.353 70.628 117.795 67.226 117.795 62.6163V59.939H131.455V63.0189C131.455 66.2195 131.589 68.4942 131.835 69.8228C132.08 71.1715 132.951 71.8358 134.401 71.8358C135.071 71.8358 135.629 71.6345 136.053 71.252C136.477 70.8696 136.7 70.4468 136.723 70.004C136.745 69.5611 136.79 67.6085 136.834 64.1663V54.363C136.834 52.511 136.611 51.2428 136.187 50.5785C135.763 49.9143 135.049 49.572 134.044 49.572C133.419 49.572 132.884 49.7532 132.46 50.0954C132.035 50.4376 131.745 50.8201 131.634 51.2026C131.5 51.6052 131.455 52.511 131.455 53.9604H117.907L118.487 29.0999H147.838Z" fill="url(#paint8_linear_6324_58252)"/>
</g>
<path d="M99.6689 76.5071H168.947C177.657 76.5071 184.71 83.5776 184.71 92.2691V124.466H83.9058V92.2691C83.9058 83.5603 90.9767 76.5071 99.6689 76.5071Z" fill="url(#paint9_linear_6324_58252)"/>
<path d="M173.069 76.6604H96.1604C89.5283 76.6604 84.1396 80.7542 84.1396 85.7927V94.1641C84.1396 95.778 85.245 97.3 87.0758 98.1398C92.7407 100.712 98.5611 97.6805 98.5611 93.613C98.5611 96.644 101.791 99.0976 105.763 99.0976C109.736 99.0976 112.983 96.644 112.983 93.613C112.983 96.644 116.212 99.0976 120.202 99.0976C124.192 99.0976 127.404 96.644 127.404 93.613C127.404 96.644 130.634 99.0976 134.623 99.0976C138.613 99.0976 141.843 96.644 141.843 93.613C141.843 96.644 145.072 99.0976 149.045 99.0976C153.017 99.0976 156.264 96.644 156.264 93.613C156.264 96.644 159.494 99.0976 163.484 99.0976C167.473 99.0976 170.686 96.644 170.686 93.613C170.686 97.6805 176.523 100.712 182.171 98.1398C184.002 97.3131 185.107 95.7911 185.107 94.1641V85.7927C185.107 80.7542 179.718 76.6604 173.086 76.6604H173.069Z" fill="url(#paint10_linear_6324_58252)"/>
<path d="M102.152 85.0385C102.152 86.8837 100.669 88.3668 98.8236 88.3668C96.9783 88.3668 95.4951 86.8665 95.4951 85.0385C95.4951 83.2105 96.9783 81.7102 98.8236 81.7102C100.669 81.7102 102.152 83.1933 102.152 85.0385Z" fill="url(#paint11_linear_6324_58252)"/>
<path d="M173.828 85.0385C173.828 86.8837 172.345 88.3668 170.499 88.3668C168.654 88.3668 167.171 86.8665 167.171 85.0385C167.171 83.2105 168.654 81.7102 170.499 81.7102C172.345 81.7102 173.828 83.1933 173.828 85.0385Z" fill="url(#paint12_linear_6324_58252)"/>
<path d="M119.537 89.2983C119.537 91.1435 118.054 92.6266 116.208 92.6266C114.363 92.6266 112.88 91.1263 112.88 89.2983C112.88 87.4703 114.38 85.97 116.208 85.97C118.037 85.97 119.537 87.4703 119.537 89.2983Z" fill="url(#paint13_linear_6324_58252)"/>
<path d="M153.459 88.3671C153.459 90.2124 151.976 91.6954 150.131 91.6954C148.285 91.6954 146.802 90.1951 146.802 88.3671C146.802 86.5391 148.285 85.0388 150.131 85.0388C151.976 85.0388 153.459 86.5219 153.459 88.3671Z" fill="url(#paint14_linear_6324_58252)"/>
<path d="M138.317 83.7282C138.317 85.5734 136.834 87.0565 134.989 87.0565C133.143 87.0565 131.66 85.5562 131.66 83.7282C131.66 81.9002 133.143 80.3999 134.989 80.3999C136.834 80.3999 138.317 81.9002 138.317 83.7282Z" fill="url(#paint15_linear_6324_58252)"/>
<path d="M79.3526 124.207H189.28C197.99 124.207 205.043 131.278 205.043 139.969V191.515H134.308H63.5723V139.969C63.5723 131.26 70.6432 124.207 79.3354 124.207H79.3526Z" fill="url(#paint16_linear_6324_58252)"/>
<mask id="mask0_6324_58252" style="mask-type:alpha" maskUnits="userSpaceOnUse" x="63" y="124" width="143" height="68">
<path d="M79.3526 124.207H189.28C197.99 124.207 205.043 131.278 205.043 139.969V191.515H134.308H63.5723V139.969C63.5723 131.26 70.6432 124.207 79.3354 124.207H79.3526Z" fill="url(#paint17_linear_6324_58252)"/>
</mask>
<g mask="url(#mask0_6324_58252)">
<path d="M62.6372 175.291L77.8856 165.706C78.5607 165.281 79.4234 165.299 80.081 165.75L94.2496 175.465C94.92 175.925 95.8018 175.933 96.4807 175.486L113.38 164.357C114.069 163.903 114.966 163.919 115.639 164.397L131.229 175.474C131.872 175.931 132.724 175.968 133.403 175.567L150.352 165.578C150.954 165.223 151.697 165.208 152.312 165.538L169.442 174.723C170.093 175.072 170.884 175.034 171.498 174.624L186.836 164.382C187.535 163.915 188.451 163.935 189.129 164.433L205.207 176.225" stroke="#F5F8FF" stroke-width="2" stroke-linecap="round" stroke-linejoin="round"/>
</g>
<path d="M191.573 124.34H76.7389C69.4585 124.34 63.5723 128.754 63.5723 134.186V149.785C63.5723 150.789 64.1058 151.767 65.0869 152.436C73.6925 158.318 83.7267 153.865 83.7267 147.648C83.7267 151.818 88.2361 155.19 93.8126 155.19C99.3891 155.19 103.898 151.818 103.898 147.648C103.898 151.818 108.408 155.19 113.984 155.19C119.561 155.19 124.07 151.818 124.07 147.648C124.07 151.818 128.58 155.19 134.156 155.19C139.732 155.19 144.242 151.818 144.242 147.648C144.242 151.818 148.751 155.19 154.328 155.19C159.904 155.19 164.414 151.818 164.414 147.648C164.414 151.818 168.923 155.19 174.499 155.19C180.076 155.19 184.585 151.818 184.585 147.648C184.585 153.865 194.619 158.318 203.225 152.436C204.206 151.754 204.74 150.789 204.74 149.785V134.186C204.74 128.741 198.836 124.34 191.573 124.34Z" fill="url(#paint18_linear_6324_58252)"/>
<path d="M81.888 133.277C81.888 135.122 80.3876 136.605 78.5595 136.605C76.7314 136.605 75.231 135.105 75.231 133.277C75.231 131.449 76.7141 129.949 78.5595 129.949C80.4048 129.949 81.888 131.432 81.888 133.277Z" fill="url(#paint19_linear_6324_58252)"/>
<path d="M98.8236 141.124C98.8236 142.969 97.3404 144.453 95.495 144.453C93.6497 144.453 92.1665 142.969 92.1665 141.124C92.1665 139.279 93.6497 137.796 95.495 137.796C97.3404 137.796 98.8236 139.296 98.8236 141.124Z" fill="#7F47C7"/>
<path d="M114.397 133.277C114.397 135.122 112.897 136.605 111.069 136.605C109.241 136.605 107.74 135.105 107.74 133.277C107.74 131.449 109.223 129.949 111.069 129.949C112.914 129.949 114.397 131.432 114.397 133.277Z" fill="url(#paint20_linear_6324_58252)"/>
<path d="M131.349 141.124C131.349 142.969 129.866 144.453 128.02 144.453C126.175 144.453 124.692 142.969 124.692 141.124C124.692 139.279 126.175 137.796 128.02 137.796C129.866 137.796 131.349 139.296 131.349 141.124Z" fill="#7F47C7"/>
<path d="M146.923 133.277C146.923 135.122 145.44 136.605 143.594 136.605C141.749 136.605 140.266 135.105 140.266 133.277C140.266 131.449 141.749 129.949 143.594 129.949C145.44 129.949 146.923 131.432 146.923 133.277Z" fill="url(#paint21_linear_6324_58252)"/>
<path d="M163.86 141.124C163.86 142.969 162.36 144.453 160.532 144.453C158.704 144.453 157.203 142.969 157.203 141.124C157.203 139.279 158.686 137.796 160.532 137.796C162.377 137.796 163.86 139.296 163.86 141.124Z" fill="#7F47C7"/>
<path d="M179.433 133.277C179.433 135.122 177.95 136.605 176.105 136.605C174.26 136.605 172.776 135.105 172.776 133.277C172.776 131.449 174.277 129.949 176.105 129.949C177.933 129.949 179.433 131.432 179.433 133.277Z" fill="url(#paint22_linear_6324_58252)"/>
<path d="M196.386 141.124C196.386 142.969 194.885 144.453 193.057 144.453C191.229 144.453 189.729 142.969 189.729 141.124C189.729 139.279 191.212 137.796 193.057 137.796C194.902 137.796 196.386 139.296 196.386 141.124Z" fill="#7F47C7"/>
<defs>
<linearGradient id="paint0_linear_6324_58252" x1="108.914" y1="182.302" x2="108.914" y2="201" gradientUnits="userSpaceOnUse">
<stop stop-color="#FFE4C4"/>
<stop offset="1" stop-color="#F7B85B"/>
</linearGradient>
<linearGradient id="paint1_linear_6324_58252" x1="35.7893" y1="126.035" x2="35.0661" y2="151.224" gradientUnits="userSpaceOnUse">
<stop stop-color="#FFD37D"/>
<stop offset="0.8125" stop-color="#FD8E20"/>
</linearGradient>
<linearGradient id="paint2_linear_6324_58252" x1="47.0339" y1="126.035" x2="46.3108" y2="151.224" gradientUnits="userSpaceOnUse">
<stop stop-color="#FFD37D"/>
<stop offset="0.8125" stop-color="#FD8E20"/>
</linearGradient>
<linearGradient id="paint3_linear_6324_58252" x1="26.3393" y1="190.554" x2="26.3393" y2="143.047" gradientUnits="userSpaceOnUse">
<stop offset="0.0625" stop-color="#3D71FF"/>
<stop offset="0.629296" stop-color="#A9C6FF"/>
</linearGradient>
<linearGradient id="paint4_linear_6324_58252" x1="4.44336" y1="151.75" x2="58.7756" y2="151.75" gradientUnits="userSpaceOnUse">
<stop stop-color="#93CEF5"/>
<stop offset="1" stop-color="#3D71FF"/>
</linearGradient>
<linearGradient id="paint5_linear_6324_58252" x1="37.28" y1="132.194" x2="30.6457" y2="189.886" gradientUnits="userSpaceOnUse">
<stop stop-color="#FFD37D"/>
<stop offset="0.8125" stop-color="#FD8E20"/>
</linearGradient>
<linearGradient id="paint6_linear_6324_58252" x1="140.232" y1="-2.10531" x2="139.127" y2="23.324" gradientUnits="userSpaceOnUse">
<stop stop-color="#FFD37D"/>
<stop offset="0.8125" stop-color="#FD8E20"/>
</linearGradient>
<linearGradient id="paint7_linear_6324_58252" x1="137.428" y1="7.22213" x2="136.897" y2="20.5463" gradientUnits="userSpaceOnUse">
<stop stop-color="#FFFAF0"/>
<stop offset="0.8125" stop-color="#FCAF63"/>
</linearGradient>
<linearGradient id="paint8_linear_6324_58252" x1="117.856" y1="48.4074" x2="150.577" y2="48.4074" gradientUnits="userSpaceOnUse">
<stop stop-color="#E05151"/>
<stop offset="1" stop-color="#F98F8F"/>
</linearGradient>
<linearGradient id="paint9_linear_6324_58252" x1="125.274" y1="129.481" x2="129.741" y2="76.722" gradientUnits="userSpaceOnUse">
<stop stop-color="#FFD482"/>
<stop offset="0.8125" stop-color="#FC8A19"/>
</linearGradient>
<linearGradient id="paint10_linear_6324_58252" x1="134.623" y1="76.6604" x2="134.623" y2="99.0976" gradientUnits="userSpaceOnUse">
<stop stop-color="#FFFCF3"/>
<stop offset="1" stop-color="#FFE5A3"/>
</linearGradient>
<linearGradient id="paint11_linear_6324_58252" x1="98.4408" y1="88.6087" x2="103.402" y2="87.4869" gradientUnits="userSpaceOnUse">
<stop offset="0.016616" stop-color="#FF5375"/>
<stop offset="1" stop-color="#FF88A0"/>
</linearGradient>
<linearGradient id="paint12_linear_6324_58252" x1="170.117" y1="88.6087" x2="175.078" y2="87.4869" gradientUnits="userSpaceOnUse">
<stop offset="0.016616" stop-color="#FF5375"/>
<stop offset="1" stop-color="#FF88A0"/>
</linearGradient>
<linearGradient id="paint13_linear_6324_58252" x1="119.537" y1="83.9882" x2="119.287" y2="92.6193" gradientUnits="userSpaceOnUse">
<stop stop-color="#FFD37D"/>
<stop offset="0.8125" stop-color="#FD8E20"/>
</linearGradient>
<linearGradient id="paint14_linear_6324_58252" x1="153.459" y1="83.0571" x2="153.209" y2="91.6882" gradientUnits="userSpaceOnUse">
<stop stop-color="#FFD37D"/>
<stop offset="0.8125" stop-color="#FD8E20"/>
</linearGradient>
<linearGradient id="paint15_linear_6324_58252" x1="134.606" y1="87.2984" x2="139.567" y2="86.1766" gradientUnits="userSpaceOnUse">
<stop offset="0.016616" stop-color="#FF5375"/>
<stop offset="1" stop-color="#FF88A0"/>
</linearGradient>
<linearGradient id="paint16_linear_6324_58252" x1="130.884" y1="198.195" x2="142.081" y2="141.606" gradientUnits="userSpaceOnUse">
<stop offset="0.016616" stop-color="#FFA296"/>
<stop offset="1" stop-color="#FF7246"/>
</linearGradient>
<linearGradient id="paint17_linear_6324_58252" x1="130.884" y1="198.195" x2="142.081" y2="141.606" gradientUnits="userSpaceOnUse">
<stop offset="0.016616" stop-color="#FFA296"/>
<stop offset="1" stop-color="#FF7246"/>
</linearGradient>
<linearGradient id="paint18_linear_6324_58252" x1="134.156" y1="124.34" x2="134.156" y2="155.191" gradientUnits="userSpaceOnUse">
<stop stop-color="#FFFCF3"/>
<stop offset="1" stop-color="#F3D78E"/>
</linearGradient>
<linearGradient id="paint19_linear_6324_58252" x1="78.1767" y1="136.847" x2="83.1382" y2="135.725" gradientUnits="userSpaceOnUse">
<stop offset="0.016616" stop-color="#FF8EA4"/>
<stop offset="1" stop-color="#FF88A0"/>
</linearGradient>
<linearGradient id="paint20_linear_6324_58252" x1="110.686" y1="136.847" x2="115.647" y2="135.725" gradientUnits="userSpaceOnUse">
<stop offset="0.016616" stop-color="#FF8EA4"/>
<stop offset="1" stop-color="#FF88A0"/>
</linearGradient>
<linearGradient id="paint21_linear_6324_58252" x1="143.211" y1="136.847" x2="148.173" y2="135.725" gradientUnits="userSpaceOnUse">
<stop offset="0.016616" stop-color="#FF8EA4"/>
<stop offset="1" stop-color="#FF88A0"/>
</linearGradient>
<linearGradient id="paint22_linear_6324_58252" x1="175.722" y1="136.847" x2="180.684" y2="135.725" gradientUnits="userSpaceOnUse">
<stop offset="0.016616" stop-color="#FF8EA4"/>
<stop offset="1" stop-color="#FF88A0"/>
</linearGradient>
<clipPath id="clip0_6324_58252">
<rect width="56.093" height="63.5721" fill="white" transform="translate(2.80469 131.819)"/>
</clipPath>
<clipPath id="clip1_6324_58252">
<rect width="32.7209" height="79.4651" fill="white" transform="translate(117.795)"/>
</clipPath>
</defs>
</svg>