<svg xmlns="http://www.w3.org/2000/svg" width="177" height="281" viewBox="0 0 177 281" fill="none">
<g clip-path="url(#clip0_6502_52390)">
<path d="M89 169.1C89 169.1 122 167.5 132.5 161C141.9 155.2 147.2 148.6 147.5 130.3C147.6 125.7 144.3 121.8 142.3 117.7C141.7 116.6 141.5 115.3 142 114C143 111.4 148.5 112.1 151.2 119.1C151.2 119.1 156.5 102.9 159.5 104C162.5 105.1 158.7 115.6 158.7 115.6C158.7 115.6 167.2 104.5 169.5 108C171.8 111.5 163 118.7 163 118.7C163 118.7 171.2 111.3 175 114.5C177 118.5 169 121.9 169 121.9C169 121.9 177.5 119.1 176 123.5C174.6 127.6 168.9 128.4 163.9 137.3C163.2 138.5 162.9 139.8 162.8 141.1C160.1 174.3 139 196.3 93 191.4L89 169.1Z" fill="url(#paint0_linear_6502_52390)"/>
<path d="M72.5002 181.2L73.4002 162.3C73.4002 162.3 40.5002 154.9 19.8002 202.4C19.8002 202.4 16.7002 209.5 13.0002 232.4C12.3002 236.6 9.80023 240.2 6.40023 242.8C3.10023 245.4 -0.299771 248.7 0.900229 251C3.10023 254.3 11.3002 248 11.3002 248C11.3002 248 3.30023 258.4 6.10023 260.7C10.4002 264.2 15.5002 251.2 15.5002 251.2C15.5002 251.2 11.5002 263.3 15.5002 264.9C20.6002 267 20.5002 256.5 21.4002 251.2C22.0002 255.4 22.5002 264.4 25.4002 264.1C29.6002 264.7 29.4002 253.4 27.9002 251C27.9002 251 31.2002 255.7 35.8002 253.9C35.8002 253.9 38.7002 251.9 37.4002 249.5C36.1002 247.1 31.0002 245 30.9002 236.5C29.3002 218.2 43.4002 188.2 72.5002 181.2Z" fill="url(#paint1_linear_6502_52390)"/>
<path d="M119.2 220.6L118.5 224.3L114.3 268L98.2002 268.2L89.4002 243.5C88.6002 241.5 84.1002 241.7 83.5002 243.7L80.1002 268.4L61.3002 269L55.2002 226.3L54.7002 221.9L119.2 220.6Z" fill="url(#paint2_linear_6502_52390)"/>
<path d="M119.7 219.4L118.8 224.6C110.5 231.8 96.3 235.2 86.8 235.4C77.2 235.7 64.6 233 55.2 226.6L54.5 221.6L119.7 219.4Z" fill="url(#paint3_linear_6502_52390)"/>
<path d="M110.5 157L98.1999 159.8V158.7L86.6999 159.3L75.2999 159V160.1L57.4999 158.8C57.4999 158.8 51.5999 198.5 51.7999 216.2C53.6999 227.8 72.0999 232 87.4999 231.7C102.9 231.7 120.8 223.3 122.3 215.5C123.3 200.8 116.1 156.9 110.5 157Z" fill="url(#paint4_linear_6502_52390)"/>
<path d="M114.3 159.3C112.4 164 99.8998 167.8 84.6998 167.9C69.4998 168.1 56.9998 164.6 54.9998 159.9C53.1998 161.1 52.2998 162.4 52.2998 163.8C52.3998 169.1 66.8998 176.4 84.7998 176.2C102.7 176 117.2 168.4 117.2 163.1C117.1 161.8 116.1 160.5 114.3 159.3Z" fill="url(#paint5_linear_6502_52390)"/>
<path fill-rule="evenodd" clip-rule="evenodd" d="M63.7002 193.2C63.3002 195 63.0002 196.8 62.6002 198.5C62.2002 200.3 61.9002 202.1 61.5002 203.9C60.9002 206.5 62.8002 210 66.5002 210.8C74.2002 212.3 82.0002 212.7 89.7002 211.7L90.2002 211.6C93.9002 211.1 96.0002 207.7 95.5002 205.1L93.7002 194.3C93.2002 191.3 90.7002 189.3 88.1002 189.6C81.8002 190.4 75.5002 190.2 69.3002 188.9C66.9002 188.4 64.3002 190.2 63.7002 193.2ZM61.5002 192.4C62.5002 187.9 66.2002 185.4 69.8002 186.1C75.8002 187.3 81.9002 187.5 88.0002 186.7C91.6002 186.2 95.3002 189.1 96.1002 193.6L97.9002 204.4C98.7002 208.9 95.7002 213 91.6002 214.1V214.2L90.6002 214.3C82.5002 215.4 74.3002 215.1 66.3002 213.4C61.8002 212.5 58.4002 207.8 59.4002 203C59.8002 201.2 60.1002 199.4 60.5002 197.7C60.7002 196 61.1002 194.2 61.5002 192.4Z" fill="url(#paint6_linear_6502_52390)"/>
<path fill-rule="evenodd" clip-rule="evenodd" d="M117.3 202.6C117.7 203.2 117.6 204 117.1 204.4C115.5 205.8 113.2 206.8 111.4 207.5C110.5 207.9 109.6 208.1 109 208.3C108.7 208.4 108.5 208.5 108.3 208.5C108.2 208.5 108.1 208.5 108.1 208.6H108C108 208.6 108 208.6 107.7 207.3L108 208.6C107.4 208.8 106.8 208.3 106.6 207.6C106.5 206.9 106.8 206.2 107.5 206.1C107.5 206.1 107.6 206.1 107.7 206.1C107.9 206.1 108.1 206 108.4 205.9C109 205.7 109.8 205.5 110.6 205.1C112.4 204.4 114.4 203.5 115.6 202.4C116.2 202 116.9 202.1 117.3 202.6Z" fill="url(#paint7_linear_6502_52390)"/>
<path fill-rule="evenodd" clip-rule="evenodd" d="M111.9 184.3C112.3 184.9 112.2 185.7 111.7 186.1C110.1 187.5 107.8 188.5 106 189.2C105.1 189.6 104.2 189.8 103.6 190C103.3 190.1 103.1 190.2 102.9 190.2C102.8 190.2 102.7 190.2 102.7 190.3H102.6C102.6 190.3 102.6 190.3 102.3 189L102.6 190.3C102 190.5 101.4 190 101.2 189.3C101.1 188.6 101.4 187.9 102.1 187.8C102.1 187.8 102.2 187.8 102.3 187.8C102.5 187.8 102.7 187.7 103 187.6C103.6 187.4 104.4 187.2 105.2 186.8C107 186.1 109 185.2 110.2 184.1C110.8 183.6 111.5 183.7 111.9 184.3Z" fill="url(#paint8_linear_6502_52390)"/>
<path fill-rule="evenodd" clip-rule="evenodd" d="M115.1 192.9C115.5 193.5 115.4 194.3 114.9 194.7C113.3 196.1 111 197.1 109.2 197.8C108.3 198.2 107.4 198.4 106.8 198.6C106.5 198.7 106.3 198.8 106.1 198.8C106 198.8 105.9 198.8 105.9 198.9H105.8C105.8 198.9 105.8 198.9 105.5 197.6L105.8 198.9C105.2 199.1 104.6 198.6 104.4 197.9C104.3 197.2 104.6 196.5 105.3 196.4C105.3 196.4 105.4 196.4 105.5 196.4C105.7 196.4 105.9 196.3 106.2 196.2C106.8 196 107.6 195.8 108.4 195.4C110.2 194.7 112.2 193.8 113.4 192.7C114 192.3 114.7 192.4 115.1 192.9Z" fill="url(#paint9_linear_6502_52390)"/>
<path d="M91.1002 275.2C91.0002 268.7 98.2002 263.3 107.1 263.2C116 263.1 123.3 268.3 123.3 274.8C123.4 281.3 116.2 280.6 107.3 280.7C98.4002 280.8 91.2002 281.7 91.1002 275.2Z" fill="url(#paint10_linear_6502_52390)"/>
<path d="M52.1002 275.2C52.0002 268.7 59.2002 263.3 68.1002 263.2C77.0002 263.1 84.3002 268.3 84.3002 274.8C84.4002 281.3 77.2002 280.6 68.3002 280.7C59.4002 280.8 52.2002 281.7 52.1002 275.2Z" fill="url(#paint11_linear_6502_52390)"/>
<path d="M153.6 79C151.1 87.8 145.5 97.5 156.6 117C164.3 130.5 129.5 149.7 131.6 132C133.5 115.5 161.1 130.5 163.1 156.5" stroke="white"/>
<path d="M146.9 85.4L149.6 70L158.8 82.6C159.5 83.5 158.9 84.8 157.8 85.1L153.3 86.1L148.8 87.1C147.8 87.4 146.7 86.5 146.9 85.4Z" fill="url(#paint12_linear_6502_52390)"/>
<path d="M111.3 48.5001C117 68.1001 134.6 79.9001 151 76.1001C167.4 72.3001 178 53.9001 174.5 33.8001C170.8 12.2001 152.4 -2.99992 133.7 1.30008C115 5.70008 105.2 27.4001 111.3 48.5001Z" fill="url(#paint13_linear_6502_52390)"/>
<path d="M163.5 36C163.4 36.5 162.7 36.4 162.7 35.9C162.6 28.5 157.6 21.3 149.8 17.6C148.3 16.9 147.7 15 148.6 13.5C148.6 13.5 148.6 13.5 148.6 13.4C149.2 12.5 150.3 12.1 151.3 12.4C161.1 15.6 166.6 26.1 163.5 36Z" fill="white" fill-opacity="0.8"/>
<path d="M118.9 145.3C116.8 153.9 102.6 160.7 85.2999 160.9C68.0999 161.1 53.6999 154.6 51.3999 146C49.3999 148.2 47.7999 149.8 48.2999 153.1C49.6999 162.5 64.9999 172.4 85.2999 172.2C105.7 172 120.8 160.8 122 152.3C122.7 148.7 121 147.5 118.9 145.3Z" fill="url(#paint14_linear_6502_52390)"/>
<path d="M126 130.1C126.3 152.7 108.2 165.8 85.5999 166.1C62.9999 166.4 44.3999 153.9 44.0999 131.3C43.7999 108.7 61.7999 91.7 84.4999 91.4C107 91 125.6 107.4 126 130.1Z" fill="url(#paint15_linear_6502_52390)"/>
<path d="M119.8 131.2C120.1 150.4 104.5 160.5 85.3002 160.8C66.1002 161.1 50.6002 151.4 50.3002 132.2C50.0002 113 65.4002 104.4 84.6002 104.1C103.8 103.9 119.5 112 119.8 131.2Z" fill="url(#paint16_linear_6502_52390)"/>
<path d="M93.1999 110.4C93.4999 110.4 93.7999 110.4 94.0999 110.4C94.5999 110.4 94.5999 109.7 94.1999 109.6C91.1999 109 87.9999 108.8 84.5999 108.8C68.3999 109 55.3999 116.3 55.6999 132.5C55.6999 132.8 56.0999 132.8 56.1999 132.6C61.0999 117.6 75.7999 110.7 93.1999 110.4Z" fill="url(#paint17_linear_6502_52390)"/>
<path d="M109.3 70.7C108.8 72.1 108.1 73.4 106.8 74.3C106.4 74.6 106.3 75.5 106.2 76.2C105.4 82 104 87.6 101.4 92.9C101 93.8 100.4 94.3 99.4002 94.6C88.5002 98.4 77.5002 98.5 66.5002 94.8C65.9002 94.6 65.2002 94 64.9002 93.4C61.9002 88 60.3002 82.2 59.5002 76.2C59.4002 75.3 59.1002 74.8 58.4002 74.3C56.6002 72.9 56.0002 70.5 56.7002 68.3C57.4002 66.2 59.4002 64.9 61.6002 64.9C63.8002 65 65.7002 66.4 66.3002 68.5C67.1002 70.9 66.2002 73 63.6002 75C64.5002 78 66.0002 80.5 68.8002 82.2C70.8002 83.4 72.8002 83.4 74.9002 82.4C78.8002 80.5 81.4002 75.3 80.4002 71.1C80.2002 70.2 79.6002 69.3 79.0002 68.7C76.5002 66.4 76.0002 62.9 77.8002 60.2C79.6002 57.6 82.9002 56.7 85.6002 58.1C89.7002 60.2 90.2002 65.9 86.5002 68.9C85.9002 69.3 85.4002 70.1 85.3002 70.8C84.6002 75.3 86.2002 78.9 89.8002 81.5C92.3002 83.3 95.1002 83.2 97.5002 81.5C99.6002 80 101 77.9 101.7 75.4C101.8 75 101.6 74.4 101.3 74.1C99.2002 72.4 98.4002 70.2 99.2002 67.9C99.9002 65.9 101.8 64.5 103.9 64.4C106.3 64.3 107.9 65.6 109 68.2C109 68.3 109.1 68.3 109.2 68.4C109.2 69.3 109.2 70 109.3 70.7Z" fill="url(#paint18_linear_6502_52390)"/>
<path d="M154.9 77.5L148.7 78.9C148.1 79 147.5 78.7 147.3 78.1C147.2 77.5 147.5 76.9 148.2 76.6999L154.4 75.3C155 75.2 155.6 75.5 155.8 76.1C156 76.7 155.5 77.3 154.9 77.5Z" fill="white"/>
<path fill-rule="evenodd" clip-rule="evenodd" d="M74.4 193.2C74.2 193.3 74.3 193 71.7 197.6C71.3 198.3 70.6 199.6 70.1 200.3C69.7 201 69.3 201.8 69.2 201.9C69.1 202.3 69 202.8 69.1 203.3C69.3 204.1 69.6 204.9 69.8 205C69.9 205.1 70.1 205.1 70.3 205C70.4 204.9 71 203.9 71.8 202.6C72.5 201.3 73.8 199.2 74.5 197.9C75.2 196.6 75.9 195.5 76 195.4C76.1 195.2 76.1 195.1 76.1 194.9C76.1 194.6 76 194.4 75.6 193.7C75.4 193.4 75.3 193.2 75.2 193.2C74.9 193.1 74.6 193.1 74.4 193.2ZM76.3 197C76 197.1 76 197.3 75.2 198.6C74.6 199.6 74.5 199.8 74.6 200.1C74.7 200.3 74.9 200.5 75.1 200.6C75.3 200.7 75.4 200.7 76.7 200.7C77.9 200.7 78.1 200.7 78.3 200.6C78.5 200.5 78.8 200.2 78.9 200C79 199.6 79 199.5 78.1 198.1C77.5 197 77.4 196.9 76.8 196.9C76.6 196.9 76.5 196.9 76.3 197ZM73.1 202.5C72.8 202.6 72.8 202.7 72.1 203.8C71.5 204.9 71.4 205 71.4 205.3C71.4 205.6 71.6 206.1 71.8 206.3C71.9 206.4 72.6 206.7 73.5 207.1C74.9 207.8 75 207.8 75.3 207.8C75.6 207.8 75.7 207.8 75.9 207.7C76.2 207.5 76.7 207 76.9 206.7C77.1 206.4 77.1 205.9 76.9 205.6C76.8 205.3 74.2 202.7 73.8 202.5C73.6 202.4 73.4 202.4 73.1 202.5Z" fill="#111214"/>
<path d="M75.3002 202.5C75.2002 202.2 75.3002 201.9 75.6002 201.7C75.7002 201.6 75.8002 201.6 77.7002 201.6C79.6002 201.6 79.6002 201.6 79.9002 201.7C80.3002 201.9 80.7002 202.4 80.7002 202.8C80.7002 203.2 80.6002 203.3 79.9002 204.1C79.1002 204.9 78.9002 205.1 78.4002 205.1C77.9002 205.1 77.8002 205 76.6002 203.8C75.9002 203.1 75.4002 202.6 75.3002 202.5Z" fill="#2161FF"/>
</g>
<defs>
<linearGradient id="paint0_linear_6502_52390" x1="132.589" y1="105.056" x2="132.589" y2="184.056" gradientUnits="userSpaceOnUse">
<stop stop-color="#DADADA"/>
<stop offset="0.5625" stop-color="white"/>
<stop offset="1" stop-color="#DBDBDB"/>
</linearGradient>
<linearGradient id="paint1_linear_6502_52390" x1="39.0432" y1="160.772" x2="34.3188" y2="265.057" gradientUnits="userSpaceOnUse">
<stop stop-color="#D5D5D5"/>
<stop offset="1" stop-color="white"/>
</linearGradient>
<linearGradient id="paint2_linear_6502_52390" x1="87.0027" y1="220.903" x2="87.5036" y2="268.622" gradientUnits="userSpaceOnUse">
<stop stop-color="#FCFCFC"/>
<stop offset="1" stop-color="#EEEEEE"/>
</linearGradient>
<linearGradient id="paint3_linear_6502_52390" x1="87.087" y1="219.707" x2="87.2509" y2="235.315" gradientUnits="userSpaceOnUse">
<stop stop-color="#E6E6E6"/>
<stop offset="1" stop-color="#A6B6C6"/>
</linearGradient>
<linearGradient id="paint4_linear_6502_52390" x1="86.8962" y1="197.093" x2="86.3977" y2="149.606" gradientUnits="userSpaceOnUse">
<stop stop-color="#FCFCFC"/>
<stop offset="1" stop-color="#A3A3A3"/>
</linearGradient>
<linearGradient id="paint5_linear_6502_52390" x1="84.666" y1="159.649" x2="84.8078" y2="173.152" gradientUnits="userSpaceOnUse">
<stop stop-color="#A0A5A9"/>
<stop offset="1" stop-color="#232323"/>
</linearGradient>
<linearGradient id="paint6_linear_6502_52390" x1="78.3017" y1="185.893" x2="78.6074" y2="215.017" gradientUnits="userSpaceOnUse">
<stop stop-color="#A6B6C6"/>
<stop offset="1" stop-color="#D8DDE2"/>
</linearGradient>
<linearGradient id="paint7_linear_6502_52390" x1="112.054" y1="202.175" x2="112.122" y2="208.636" gradientUnits="userSpaceOnUse">
<stop stop-color="#A6B6C6"/>
<stop offset="1" stop-color="#D8DDE2"/>
</linearGradient>
<linearGradient id="paint8_linear_6502_52390" x1="106.661" y1="183.836" x2="106.729" y2="190.297" gradientUnits="userSpaceOnUse">
<stop stop-color="#A6B6C6"/>
<stop offset="1" stop-color="#D8DDE2"/>
</linearGradient>
<linearGradient id="paint9_linear_6502_52390" x1="109.852" y1="192.466" x2="109.92" y2="198.927" gradientUnits="userSpaceOnUse">
<stop stop-color="#A6B6C6"/>
<stop offset="1" stop-color="#D8DDE2"/>
</linearGradient>
<linearGradient id="paint10_linear_6502_52390" x1="107.101" y1="263.169" x2="107.285" y2="280.712" gradientUnits="userSpaceOnUse">
<stop stop-color="#FCFCFC"/>
<stop offset="1" stop-color="#C5C5C5"/>
</linearGradient>
<linearGradient id="paint11_linear_6502_52390" x1="68.1014" y1="263.169" x2="68.2855" y2="280.712" gradientUnits="userSpaceOnUse">
<stop stop-color="#FCFCFC"/>
<stop offset="1" stop-color="#C5C5C5"/>
</linearGradient>
<linearGradient id="paint12_linear_6502_52390" x1="148.113" y1="62.0271" x2="153.484" y2="86.5728" gradientUnits="userSpaceOnUse">
<stop stop-color="#93CEF5"/>
<stop offset="1" stop-color="#3D71FF"/>
</linearGradient>
<linearGradient id="paint13_linear_6502_52390" x1="128.855" y1="-37.7897" x2="148.404" y2="72.7491" gradientUnits="userSpaceOnUse">
<stop stop-color="#93CEF5"/>
<stop offset="1" stop-color="#3D71FF"/>
</linearGradient>
<linearGradient id="paint14_linear_6502_52390" x1="85.2196" y1="145.697" x2="85.4787" y2="170.383" gradientUnits="userSpaceOnUse">
<stop stop-color="#A6B6C6"/>
<stop offset="1" stop-color="#EBEBEB"/>
</linearGradient>
<linearGradient id="paint15_linear_6502_52390" x1="99.1255" y1="93.6039" x2="71.7805" y2="164.959" gradientUnits="userSpaceOnUse">
<stop stop-color="#CCD6DF"/>
<stop offset="1" stop-color="#FCFCFC"/>
</linearGradient>
<linearGradient id="paint16_linear_6502_52390" x1="95.5892" y1="104.242" x2="73.4807" y2="161.932" gradientUnits="userSpaceOnUse">
<stop stop-color="#343434"/>
<stop offset="1" stop-color="#606470" stop-opacity="0.9"/>
</linearGradient>
<linearGradient id="paint17_linear_6502_52390" x1="80.6683" y1="104.389" x2="68.0334" y2="137.36" gradientUnits="userSpaceOnUse">
<stop stop-color="#E4E3E3"/>
<stop offset="1" stop-color="#FCFCFC"/>
</linearGradient>
<linearGradient id="paint18_linear_6502_52390" x1="83.1124" y1="45.1309" x2="82.5234" y2="96.9172" gradientUnits="userSpaceOnUse">
<stop stop-color="#FFD37D"/>
<stop offset="0.8125" stop-color="#FD8E20"/>
</linearGradient>
<clipPath id="clip0_6502_52390">
<rect width="177" height="281" fill="white"/>
</clipPath>
</defs>
</svg>